PathFileType  4	(X/Y/Z) C:\Users\antoi\Documents\MyRepositories\mobilecap\ResultsAnalysis
DataRate	CameraRate	NumFrames	NumMarkers	Units	OrigDataRate	OrigDataStartFrame	OrigNumFrames
100.0	100.0	6	51	mm	100.0	173	1383
Frame#	Time	r_knee			r_shank_antsup			r_ankle			r_calc			r_5meta			r_toe			L_knee			L_shank_antsup			L_ankle			L_calc			L_5meta			L_toe			r_sh2			r_sh3			r_sh4			L_sh2			L_sh3			r_thigh1			r_thigh2			r_thigh3			r_thigh4			r_thigh5			L_thigh1			L_thigh2			L_thigh3			L_thigh4			r.ASIS			r.PSIS			L.ASIS			L.PSIS			C7			R_Shoulder			L_Shoulder			R_Sternum			L_Sternum			R_humerus			R_elbow_med			R_elbow_lat			R_forearm			R_wrist_radius			R_wrist_ulna			L_humerus			L_elbow_med			L_elbow_lat			L_forearm			L_wrist_radius			L_wrist_ulna			R_HJC			L_HJC			R_HJC_reg			L_HJC_reg			
		X1	Y1	Z1	X2	Y2	Z2	X3	Y3	Z3	X4	Y4	Z4	X5	Y5	Z5	X6	Y6	Z6	X7	Y7	Z7	X8	Y8	Z8	X9	Y9	Z9	X10	Y10	Z10	X11	Y11	Z11	X12	Y12	Z12	X13	Y13	Z13	X14	Y14	Z14	X15	Y15	Z15	X16	Y16	Z16	X17	Y17	Z17	X18	Y18	Z18	X19	Y19	Z19	X20	Y20	Z20	X21	Y21	Z21	X22	Y22	Z22	X23	Y23	Z23	X24	Y24	Z24	X25	Y25	Z25	X26	Y26	Z26	X27	Y27	Z27	X28	Y28	Z28	X29	Y29	Z29	X30	Y30	Z30	X31	Y31	Z31	X32	Y32	Z32	X33	Y33	Z33	X34	Y34	Z34	X35	Y35	Z35	X36	Y36	Z36	X37	Y37	Z37	X38	Y38	Z38	X39	Y39	Z39	X40	Y40	Z40	X41	Y41	Z41	X42	Y42	Z42	X43	Y43	Z43	X44	Y44	Z44	X45	Y45	Z45	X46	Y46	Z46	X47	Y47	Z47	X48	Y48	Z48	X49	Y49	Z49	X50	Y50	Z50	X51	Y51	Z51	

173	1.72000000	-229.72595	466.89076	-441.97252	-221.03224	398.00437	-412.03462	-275.95533	95.59562	-427.25189	-343.69931	57.00891	-463.10416	-174.71929	45.01572	-393.34220	-130.38926	63.33309	-448.47466	-221.78673	464.63670	-791.73735	-196.20463	399.41188	-802.12859	-268.40918	97.57657	-804.17967	-340.02562	59.05083	-758.43403	-177.61520	43.22844	-833.37521	-128.12097	64.81213	-778.08293	-233.42532	285.54137	-400.63496	-294.59546	402.98697	-426.75362	-313.40164	288.34122	-418.23682	-282.78949	417.55323	-819.88445	-291.92879	296.00123	-830.55155	-261.79974	769.83892	-476.70733	-220.95468	665.95625	-457.64415	-258.73785	633.67012	-411.22230	-350.34920	747.40255	-407.35445	-315.45038	635.43818	-408.22743	-253.22554	749.38153	-781.17288	-204.25515	619.65443	-784.32643	-361.38929	712.59100	-806.77233	-303.72905	583.32364	-809.68731	-280.36819	874.62249	-479.61119	-444.68344	947.06286	-559.63666	-266.19560	872.51451	-732.88311	-441.73510	943.67183	-668.16472	-169.85061	1336.58110	-585.04847	-127.84217	1263.94324	-438.43632	-119.78967	1274.29354	-747.78207	-88.34605	1215.22878	-569.35904	-87.75559	1216.99674	-613.16717	-187.38988	1049.84502	-338.51403	-241.34136	946.28629	-387.15829	-223.04252	975.85865	-313.24034	-109.75062	979.57750	-337.91668	-4.00732	983.02339	-377.13774	-2.05801	938.26305	-371.40722	-131.26334	1149.86807	-808.05016	-239.11173	952.42320	-793.10863	-231.01886	969.88176	-864.13376	-116.96011	966.48260	-854.50184	-4.43612	958.13128	-815.98355	-3.65817	920.84118	-820.58885	-363.90361	822.59206	-509.84152	-349.62512	822.72637	-709.62415	-360.87318	819.28963	-515.83922	-356.32859	814.06285	-683.12247	
174	1.73000000	-227.33350	466.60681	-441.63715	-218.70723	397.48260	-411.84018	-275.95151	95.56385	-427.18162	-343.74958	56.88592	-463.00375	-174.72436	45.03421	-393.34710	-130.45921	63.39150	-448.43207	-218.97321	464.27071	-793.02627	-193.39544	398.45410	-803.08849	-268.23600	97.61968	-804.48493	-340.30482	58.99268	-758.19761	-177.61811	43.24507	-833.34985	-128.17775	64.85148	-778.04548	-231.85473	285.12645	-400.40289	-292.14190	403.02675	-426.26031	-312.10887	288.48275	-418.39398	-279.80527	417.39557	-821.13743	-289.66653	295.97625	-831.40379	-265.27069	768.61012	-476.64166	-222.11647	666.08645	-457.22140	-259.46306	633.12445	-410.59112	-353.38560	744.92351	-407.38906	-315.89401	633.71622	-407.72991	-256.38533	748.70286	-781.20078	-204.26271	620.13843	-784.84963	-363.47932	709.69938	-807.39748	-302.93819	581.56644	-810.34807	-284.53122	871.08441	-479.50589	-448.65328	944.37052	-559.71222	-270.41060	869.29472	-732.44240	-445.57114	941.10397	-668.13189	-169.36286	1331.03008	-584.52610	-127.81509	1258.06420	-438.09800	-119.42413	1268.20218	-747.36682	-89.22731	1208.76017	-568.79387	-88.60565	1210.77657	-612.72358	-185.64557	1043.86027	-338.01013	-239.49786	939.87340	-385.92582	-220.53779	969.66780	-312.11048	-107.44261	973.37421	-337.92481	-1.99082	976.89808	-377.88837	0.02872	932.17783	-372.11824	-129.61991	1144.02593	-807.72158	-236.48197	945.67391	-793.96539	-227.71827	963.26635	-864.75452	-113.74362	959.67955	-854.13472	-1.48696	951.07039	-814.75545	-1.10542	913.68291	-818.58928	-368.42129	819.50478	-509.81500	-353.94001	819.79329	-709.58298	-365.36511	816.24265	-515.86851	-360.61599	811.20932	-682.92724	
175	1.74000000	-224.62757	466.31873	-441.45097	-216.35968	396.59117	-412.34284	-275.94040	95.60265	-427.11280	-343.80527	56.79664	-462.93963	-174.69595	45.06095	-393.31744	-130.49472	63.46613	-448.36372	-216.06807	463.85309	-794.40111	-190.60700	397.49398	-804.33592	-267.98202	97.49854	-804.86853	-340.36143	58.91212	-758.26732	-177.61194	43.26212	-833.33264	-128.20488	64.94189	-778.01529	-230.37077	284.70704	-400.00183	-289.26931	403.37415	-426.23779	-310.63753	288.78706	-418.11760	-276.78027	417.13530	-822.39563	-287.50761	295.83817	-832.31803	-268.63913	767.59162	-476.39115	-223.27650	666.04463	-456.81051	-259.81082	632.49108	-410.30064	-356.27839	742.32354	-407.42984	-316.34470	631.82552	-407.41049	-259.60076	747.89350	-781.32290	-204.27540	620.63879	-785.31632	-365.63197	706.45813	-807.99844	-301.94011	579.69109	-811.05580	-288.88034	867.31751	-479.60287	-452.63712	941.34005	-559.83382	-274.60097	865.96374	-732.18072	-449.49735	938.10158	-667.93634	-168.93345	1325.04635	-584.01444	-128.15388	1251.45705	-438.06914	-119.11449	1261.60936	-746.82496	-90.17569	1201.92441	-568.37290	-89.48506	1203.96709	-612.37674	-183.92028	1037.52923	-337.48622	-237.72506	933.27968	-384.77764	-218.02375	963.00152	-311.37791	-105.19948	966.90587	-338.03545	-0.04878	970.60469	-378.77397	2.06051	925.98336	-372.96708	-128.13681	1137.76685	-807.18532	-233.87075	938.65407	-794.69507	-224.32110	956.36545	-865.52107	-110.47649	952.54133	-853.75463	1.49445	943.71831	-813.60376	1.47856	906.23197	-816.43726	-372.89861	816.08215	-509.90007	-358.25008	816.64384	-709.65523	-369.86947	813.13128	-515.98470	-365.02404	808.13350	-682.80954	
176	1.75000000	-221.57592	465.97890	-441.29044	-213.68751	395.73318	-412.56432	-275.84560	95.67796	-427.01116	-343.84844	56.77043	-462.95111	-174.68852	45.06359	-393.29194	-130.50497	63.51695	-448.34358	-213.28875	463.20161	-795.48546	-187.87514	396.49360	-805.56323	-267.90904	97.08287	-804.83272	-340.37912	58.79962	-758.32208	-177.60531	43.28855	-833.31534	-128.23844	65.05796	-777.98861	-228.82395	284.23372	-399.57723	-286.22062	403.80895	-426.43175	-308.86800	289.20236	-417.92159	-273.79542	416.79161	-823.60290	-285.57285	295.46650	-833.25395	-271.69040	766.26183	-476.03199	-224.43231	665.77972	-456.52165	-260.09126	631.63048	-410.16061	-359.12761	739.30948	-407.49130	-316.85963	629.61920	-407.46238	-262.95008	746.95287	-781.51660	-204.43162	621.09360	-785.95920	-367.87532	702.90105	-808.57841	-300.95340	577.85362	-812.19735	-293.74800	863.76207	-479.05215	-456.63628	937.94791	-559.84212	-278.81575	862.46010	-732.28250	-453.49377	934.69851	-667.72307	-168.49393	1318.78806	-583.64915	-128.54198	1244.42151	-438.18551	-118.78687	1254.46785	-745.92177	-91.10594	1194.73799	-567.96409	-90.37123	1196.71570	-611.93830	-182.24851	1030.79716	-337.01148	-235.71067	926.36135	-383.82856	-215.55005	955.99332	-310.78162	-102.97194	960.17029	-338.24363	1.72803	964.17354	-379.86107	4.05123	919.64490	-373.95557	-126.89853	1131.04187	-806.39429	-231.27741	931.54404	-795.33956	-220.86344	949.22783	-866.48516	-107.17851	945.03691	-853.34885	4.26249	936.00429	-812.21184	4.03868	898.48717	-813.97351	-377.48799	812.58550	-509.78711	-362.51219	813.21051	-709.51728	-374.57913	809.63911	-515.53632	-369.70655	804.60085	-682.81498	
177	1.76000000	-218.46481	465.43680	-440.94536	-210.67327	395.04128	-412.13885	-275.65311	95.73260	-426.91327	-343.86414	56.76928	-462.97129	-174.72963	45.05898	-393.32122	-130.52310	63.55102	-448.38985	-210.52710	462.53411	-796.63825	-185.07866	395.49540	-806.71092	-268.05032	96.66730	-804.50082	-340.44504	58.70794	-758.28596	-177.61133	43.32047	-833.29644	-128.29627	65.15878	-777.97308	-226.99763	283.70497	-399.18891	-283.10508	403.87597	-426.18338	-306.82124	289.70616	-418.04838	-270.78060	416.45561	-824.97412	-283.56229	295.06673	-834.34169	-274.62257	764.45601	-475.45254	-225.60453	665.33188	-456.30608	-260.76885	630.41259	-410.01205	-362.11927	735.71775	-407.70510	-317.38053	627.06425	-407.54568	-266.42550	745.69794	-781.68008	-204.76263	621.33917	-786.92649	-370.15500	699.20575	-809.54550	-300.09414	575.92799	-813.55618	-298.73291	860.30027	-478.09580	-460.62311	934.16661	-559.75157	-283.09336	858.53566	-732.37020	-457.53077	930.95490	-667.63725	-168.00483	1312.25244	-583.43072	-128.68172	1237.30995	-438.15150	-118.40565	1246.85358	-744.84635	-92.07984	1187.20542	-567.57471	-91.28404	1189.14994	-611.40441	-180.63492	1023.69468	-336.66164	-233.71533	918.95892	-382.85082	-213.11952	948.80623	-310.00186	-100.76704	953.19995	-338.46880	3.37719	957.65040	-381.03499	5.94796	913.18369	-375.10401	-125.63658	1123.87277	-805.52454	-228.34634	924.07214	-796.15034	-217.37597	941.70622	-867.36221	-103.86623	937.17385	-852.93037	6.91335	928.00552	-810.63928	6.56054	890.55652	-811.10878	-382.09019	808.99839	-509.42277	-366.73495	809.34093	-709.12499	-379.23121	805.63369	-514.71414	-374.41584	800.63277	-682.71358	
178	1.77000000	-215.55058	464.58681	-440.45762	-207.53780	394.28817	-411.59128	-275.44238	95.72735	-426.86570	-343.86786	56.74312	-462.94913	-174.76589	45.08614	-393.37453	-130.54724	63.58405	-448.44714	-207.61728	462.21489	-798.49344	-182.17294	394.53788	-807.91520	-268.06427	96.54224	-804.58384	-340.47614	58.69494	-758.33620	-177.62705	43.34271	-833.28314	-128.35405	65.22418	-777.97374	-224.88440	283.06193	-398.93383	-279.85843	403.61028	-425.70995	-304.51588	289.96062	-418.06810	-267.70120	416.07281	-826.48995	-281.42707	294.84656	-835.57493	-278.03892	762.39111	-474.83062	-226.84199	664.62583	-455.98134	-261.72534	628.71374	-410.08057	-365.22858	731.58612	-407.92201	-317.87200	624.10736	-407.50049	-269.90270	743.97546	-781.84932	-205.18996	621.22495	-788.07443	-372.35969	695.43891	-810.84646	-299.34591	573.70163	-814.76992	-303.14176	856.06649	-478.03108	-464.59382	930.00808	-559.75533	-287.40887	854.03881	-732.25384	-461.57343	926.87211	-667.67005	-167.54951	1305.33029	-583.25198	-128.78225	1229.85096	-438.10704	-118.00964	1238.95890	-743.99829	-93.11944	1179.33922	-567.32509	-92.22319	1181.26588	-610.89157	-179.07086	1016.32972	-336.37286	-232.16368	911.21731	-381.77207	-210.72719	941.33071	-309.23649	-98.65640	946.05107	-338.72248	4.98167	951.03329	-382.24729	7.73413	906.62514	-376.34894	-124.26367	1116.37989	-804.68151	-225.13279	916.28660	-797.03315	-213.88187	933.73487	-868.05644	-100.55816	928.94820	-852.46752	9.82851	919.89761	-809.21320	9.08335	882.51291	-807.96493	-386.48253	804.83923	-509.32828	-371.06449	805.01220	-709.02655	-383.54905	801.30196	-514.61997	-378.84743	796.42029	-682.59635	
